<svg viewBox="0 0 24 24" fill="none" xmlns="http://www.w3.org/2000/svg">
  <path
    d="M5.36108 16.7829L5.89141 17.3132L5.36108 16.7829ZM1.67066 19.4126C1.37777 19.7055 1.37777 20.1804 1.67066 20.4733C1.96355 20.7662 2.43843 20.7662 2.73132 20.4733L1.67066 19.4126ZM6.37218 22.2514C5.95797 22.2514 5.62218 22.5872 5.62218 23.0014C5.62218 23.4157 5.95797 23.7514 6.37218 23.7514V22.2514ZM14.9142 22.6269L14.3839 22.0965L14.3839 22.0965L14.9142 22.6269ZM21.3128 16.2285L21.8431 16.7588L21.8431 16.7588L21.3128 16.2285ZM18.6872 13.6028L18.1569 13.0725L18.1569 13.0725L18.6872 13.6028ZM15.6777 15.5516C15.3848 15.8445 15.3848 16.3194 15.6777 16.6123C15.9706 16.9052 16.4455 16.9052 16.7384 16.6123L15.6777 15.5516ZM11 17.8078C10.5858 17.8078 10.25 18.1436 10.25 18.5578C10.25 18.972 10.5858 19.3078 11 19.3078V17.8078ZM21.3128 13.6028L21.8431 13.0725L21.8431 13.0725L21.3128 13.6028ZM8.69401 12.1883L8.50239 11.4632L8.50239 11.4632L8.69401 12.1883ZM9.03448 12.0983L9.2261 12.8234L9.2261 12.8234L9.03448 12.0983ZM10.982 2.62081L10.7879 1.89637L10.7879 1.89637L10.982 2.62081ZM15.7711 1.33737L15.577 0.612933L15.577 0.612933L15.7711 1.33737ZM15.8233 10.2789L15.6317 9.55379L15.6317 9.55379L15.8233 10.2789ZM15.481 10.3694L15.6726 11.0945L15.6726 11.0945L15.481 10.3694ZM14.7861 7.76436L14.9811 8.48856L14.9811 8.48856L14.7861 7.76436ZM8.00454 9.5793L8.19616 10.3044L8.19616 10.3044L8.00454 9.5793ZM14.5268 14.8613H8.18951V16.3613H14.5268V14.8613ZM4.83075 16.2525L1.67066 19.4126L2.73132 20.4733L5.89141 17.3132L4.83075 16.2525ZM14.0106 23.7514C14.5292 23.7514 15.049 23.5527 15.4446 23.1572L14.3839 22.0965C14.2803 22.2001 14.1466 22.2514 14.0106 22.2514V23.7514ZM15.4445 23.1572L21.8431 16.7588L20.7825 15.6981L14.3839 22.0965L15.4445 23.1572ZM18.1569 13.0725L15.6777 15.5516L16.7384 16.6123L19.2175 14.1332L18.1569 13.0725ZM14.5268 17.8078H11V19.3078H14.5268V17.8078ZM21.8431 13.0725C20.8252 12.0546 19.1748 12.0546 18.1569 13.0725L19.2175 14.1332C19.6497 13.701 20.3503 13.701 20.7825 14.1332L21.8431 13.0725ZM21.8431 16.7588C22.8611 15.7409 22.8611 14.0904 21.8431 13.0725L20.7825 14.1332C21.2147 14.5653 21.2146 15.266 20.7825 15.6981L21.8431 16.7588ZM8.18951 14.8613C6.92973 14.8613 5.72155 15.3617 4.83075 16.2525L5.89141 17.3132C6.5009 16.7037 7.32755 16.3613 8.18951 16.3613V14.8613ZM15.25 17.0845C15.25 17.484 14.9262 17.8078 14.5268 17.8078V19.3078C15.7546 19.3078 16.75 18.3124 16.75 17.0845H15.25ZM14.5268 16.3613C14.9262 16.3613 15.25 16.6851 15.25 17.0845H16.75C16.75 15.8567 15.7546 14.8613 14.5268 14.8613V16.3613ZM8.88564 12.9134L9.2261 12.8234L8.84285 11.3732L8.50239 11.4632L8.88564 12.9134ZM10.9909 10.5316V8.9883H9.49091V10.5316H10.9909ZM10.9909 8.9883V3.58672H9.49091V8.9883H10.9909ZM11.1762 3.34524L15.9653 2.06181L15.577 0.612933L10.7879 1.89637L11.1762 3.34524ZM16.28 2.30328V7.16005H17.78V2.30328H16.28ZM16.28 7.16005V8.71197H17.78V7.16005H16.28ZM15.6317 9.55379L15.2894 9.64425L15.6726 11.0945L16.0149 11.004L15.6317 9.55379ZM14.9811 8.48856L17.225 7.88425L16.835 6.43585L14.591 7.04016L14.9811 8.48856ZM10.0493 8.26319L7.81291 8.8542L8.19616 10.3044L10.4325 9.7134L10.0493 8.26319ZM14.5386 9.06604C14.5386 8.79564 14.72 8.55887 14.9811 8.48856L14.591 7.04016C13.6751 7.28684 13.0386 8.11743 13.0386 9.06604H14.5386ZM15.2894 9.64425C14.91 9.74448 14.5386 9.45841 14.5386 9.06604H13.0386C13.0386 10.4425 14.3418 11.4461 15.6726 11.0945L15.2894 9.64425ZM16.28 8.71197C16.28 9.10718 16.0138 9.45283 15.6317 9.55379L16.0149 11.004C17.0553 10.7291 17.78 9.78803 17.78 8.71197H16.28ZM15.9653 2.06181C16.1241 2.01925 16.28 2.1389 16.28 2.30328H17.78C17.78 1.15258 16.6885 0.315066 15.577 0.612933L15.9653 2.06181ZM10.9909 3.58672C10.9909 3.47357 11.0669 3.37453 11.1762 3.34524L10.7879 1.89637C10.0229 2.10139 9.49091 2.79469 9.49091 3.58672H10.9909ZM9.2261 12.8234C10.2663 12.5485 10.9909 11.6076 10.9909 10.5316H9.49091C9.49091 10.9267 9.22482 11.2723 8.84285 11.3732L9.2261 12.8234ZM6.25 10.8838C6.25 12.2611 7.55401 13.2653 8.88564 12.9134L8.50239 11.4632C8.12225 11.5636 7.75 11.277 7.75 10.8838H6.25ZM7.75 10.8838C7.75 10.6118 7.93319 10.3739 8.19616 10.3044L7.81291 8.8542C6.89171 9.09764 6.25 9.93097 6.25 10.8838H7.75ZM6.37218 23.7514H14.0106V22.2514H6.37218V23.7514Z"
    fill="currentcolor" />
</svg>