<svg viewBox="0 0 24 24" fill="none" xmlns="http://www.w3.org/2000/svg">
  <path
    d="M8.75 2.25H8C8 2.66421 8.33579 3 8.75 3V2.25ZM13.25 2.25V3C13.6642 3 14 2.66421 14 2.25H13.25ZM17.25 7C17.25 7.41421 17.5858 7.75 18 7.75C18.4142 7.75 18.75 7.41421 18.75 7H17.25ZM18.75 15C18.75 14.5858 18.4142 14.25 18 14.25C17.5858 14.25 17.25 14.5858 17.25 15H18.75ZM19.5 3.48817C19.0858 3.48817 18.75 3.82396 18.75 4.23817C18.75 4.65238 19.0858 4.98817 19.5 4.98817V3.48817ZM21.2499 2.5L21.9999 2.49021C21.9945 2.07985 21.6603 1.75 21.2499 1.75C20.8395 1.75 20.5053 2.07985 20.5 2.49021L21.2499 2.5ZM20.4999 6C20.4999 6.41421 20.8357 6.75 21.2499 6.75C21.6641 6.75 21.9999 6.41421 21.9999 6H20.4999ZM23 4.98821C23.4142 4.98821 23.75 4.65242 23.75 4.23821C23.75 3.824 23.4142 3.48821 23 3.48821V4.98821ZM19 10.9884L19.0003 11.7384C19.4144 11.7382 19.75 11.4025 19.75 10.9884C19.75 10.5743 19.4144 10.2385 19.0003 10.2384L19 10.9884ZM14.4958 6.5L15.2458 6.49535C15.2433 6.08296 14.9082 5.75 14.4958 5.75C14.0834 5.75 13.7484 6.08296 13.7459 6.49535L14.4958 6.5ZM14.4958 15.5037L13.7458 15.504C13.7459 15.9181 14.0816 16.2537 14.4958 16.2537C14.9099 16.2537 15.2456 15.9181 15.2458 15.504L14.4958 15.5037ZM10 10.9884L9.99834 10.2384C9.58478 10.2393 9.25 10.5748 9.25 10.9884C9.25 11.402 9.58478 11.7375 9.99834 11.7384L10 10.9884ZM16 22.25H6V23.75H16V22.25ZM4.75 21V3H3.25V21H4.75ZM6 22.25C5.30964 22.25 4.75 21.6904 4.75 21H3.25C3.25 22.5188 4.48122 23.75 6 23.75V22.25ZM17.25 21C17.25 21.6904 16.6904 22.25 16 22.25V23.75C17.5188 23.75 18.75 22.5188 18.75 21H17.25ZM16 1.75C16.6904 1.75 17.25 2.30964 17.25 3H18.75C18.75 1.48122 17.5188 0.25 16 0.25V1.75ZM6 0.25C4.48122 0.25 3.25 1.48122 3.25 3H4.75C4.75 2.30964 5.30964 1.75 6 1.75V0.25ZM8.75 3H13.25V1.5H8.75V3ZM13.25 1.75H16V0.25H13.25V1.75ZM14 2.25V1H12.5V2.25H14ZM6 1.75H8.75V0.25H6V1.75ZM8.75 1.75H13.25V0.25H8.75V1.75ZM9.5 2.25V1H8V2.25H9.5ZM17.25 3V7H18.75V3H17.25ZM18.75 21V15H17.25V21H18.75ZM19.5 4.98817C20.8743 4.98817 21.982 3.87709 21.9999 2.50979L20.5 2.49021C20.4927 3.04715 20.0432 3.48817 19.5 3.48817V4.98817ZM19.5 4.98817C20.0475 4.98817 20.4999 5.43637 20.4999 6L21.9999 6C21.9999 4.61761 20.8856 3.48817 19.5 3.48817V4.98817ZM23 3.48821C21.6145 3.48821 20.4999 4.6175 20.4999 6H21.9999C21.9999 5.43648 22.4524 4.98821 23 4.98821V3.48821ZM20.5 2.50979C20.5178 3.87716 21.6258 4.98821 23 4.98821V3.48821C22.4568 3.48821 22.0071 3.04709 21.9999 2.49021L20.5 2.50979ZM19.0003 10.2384C16.9363 10.2376 15.2587 8.56599 15.2458 6.49535L13.7459 6.50465C13.7638 9.39591 16.1072 11.7373 18.9997 11.7384L19.0003 10.2384ZM15.2458 15.504C15.2465 13.4229 16.9288 11.7391 19.0003 11.7384L18.9997 10.2384C16.0968 10.2394 13.7468 12.5979 13.7458 15.5035L15.2458 15.504ZM9.99834 11.7384C12.0665 11.743 13.745 13.4253 13.7458 15.504L15.2458 15.5035C15.2447 12.6011 12.9001 10.2448 10.0017 10.2384L9.99834 11.7384ZM13.7459 6.49535C13.733 8.56358 12.0591 10.2338 9.99834 10.2384L10.0017 11.7384C12.8896 11.732 15.2279 9.39265 15.2458 6.50465L13.7459 6.49535Z"
    fill="currentColor" />
</svg>