<svg viewBox="0 0 24 24" fill="none" xmlns="http://www.w3.org/2000/svg">
  <path
    d="M6.15637 12.7449L5.46474 12.4548C5.34694 12.7357 5.41068 13.0599 5.62604 13.2752L6.15637 12.7449ZM7.18235 10.2987L6.49072 10.0086L6.49072 10.0086L7.18235 10.2987ZM20.2489 1.71453L20.2405 2.46448L20.2405 2.46448L20.2489 1.71453ZM22.0158 1.73423L22.7657 1.72587C22.7612 1.3182 22.4318 0.988828 22.0241 0.984281L22.0158 1.73423ZM22.0355 3.50112L21.2855 3.50948L21.2855 3.50948L22.0355 3.50112ZM13.4513 16.5676L13.7414 17.2593L13.7414 17.2593L13.4513 16.5676ZM11.0051 17.5936L10.4748 18.124C10.6901 18.3393 11.0143 18.4031 11.2952 18.2853L11.0051 17.5936ZM10.0127 5.15488L9.88943 5.89468L9.88943 5.89468L10.0127 5.15488ZM3.63099 7.39109L3.10066 6.86076C2.96001 7.00141 2.88099 7.19218 2.88099 7.39109C2.88099 7.59 2.96001 7.78077 3.10066 7.92142L3.63099 7.39109ZM18.5951 13.7373L17.8553 13.8606L17.8553 13.8606L18.5951 13.7373ZM16.3589 20.119L15.8286 20.6493C16.1215 20.9422 16.5963 20.9422 16.8892 20.6493L16.3589 20.119ZM6.3433 18.4674C6.63619 18.1745 6.63619 17.6996 6.3433 17.4067C6.0504 17.1138 5.57553 17.1138 5.28264 17.4067L6.3433 18.4674ZM1.45421 21.2351C1.16132 21.528 1.16132 22.0029 1.45421 22.2958C1.7471 22.5887 2.22198 22.5887 2.51487 22.2958L1.45421 21.2351ZM3.22198 15.346C3.51487 15.0531 3.51487 14.5783 3.22198 14.2854C2.92908 13.9925 2.45421 13.9925 2.16132 14.2854L3.22198 15.346ZM0.33289 16.1138C0.0399969 16.4067 0.039997 16.8816 0.33289 17.1745C0.625783 17.4674 1.10066 17.4674 1.39355 17.1745L0.33289 16.1138ZM9.46462 21.5887C9.75751 21.2958 9.75751 20.8209 9.46462 20.528C9.17172 20.2351 8.69685 20.2351 8.40396 20.528L9.46462 21.5887ZM6.57553 22.3564C6.28264 22.6493 6.28264 23.1242 6.57553 23.4171C6.86842 23.71 7.3433 23.71 7.63619 23.4171L6.57553 22.3564ZM6.848 13.035L7.87398 10.5888L6.49072 10.0086L5.46474 12.4548L6.848 13.035ZM20.2405 2.46448L22.0074 2.48419L22.0241 0.984281L20.2572 0.964577L20.2405 2.46448ZM21.2658 1.7426L21.2855 3.50948L22.7854 3.49275L22.7657 1.72587L21.2658 1.7426ZM13.1612 15.876L10.715 16.902L11.2952 18.2853L13.7414 17.2593L13.1612 15.876ZM11.5354 17.0633L6.6867 12.2146L5.62604 13.2752L10.4748 18.124L11.5354 17.0633ZM21.2855 3.50948C21.3456 8.90066 18.1331 13.7907 13.1612 15.876L13.7414 17.2593C19.2761 14.9379 22.8524 9.49426 22.7854 3.49275L21.2855 3.50948ZM7.87398 10.5888C9.95932 5.6169 14.8493 2.40436 20.2405 2.46448L20.2572 0.964577C14.2557 0.897645 8.81213 4.47388 6.49072 10.0086L7.87398 10.5888ZM10.8254 4.52997L10.136 4.41508L9.88943 5.89468L10.5788 6.00956L10.8254 4.52997ZM3.38186 6.57956L3.10066 6.86076L4.16132 7.92142L4.44252 7.64022L3.38186 6.57956ZM3.10066 7.92142L6.63619 11.457L7.69685 10.3963L4.16132 6.86076L3.10066 7.92142ZM10.136 4.41508C7.66721 4.00362 5.15165 4.80976 3.38186 6.57956L4.44252 7.64022C5.86977 6.21296 7.89845 5.56285 9.88943 5.89468L10.136 4.41508ZM17.7404 13.1712L17.8553 13.8606L19.3349 13.614L19.22 12.9246L17.7404 13.1712ZM16.1098 19.3075L15.8286 19.5887L16.8892 20.6493L17.1704 20.3681L16.1098 19.3075ZM16.8892 19.5887L13.3537 16.0531L12.293 17.1138L15.8286 20.6493L16.8892 19.5887ZM17.8553 13.8606C18.1872 15.8516 17.537 17.8802 16.1098 19.3075L17.1704 20.3681C18.9402 18.5983 19.7464 16.0828 19.3349 13.614L17.8553 13.8606ZM12.4144 3.67878L20.0712 11.3356L21.1319 10.275L13.475 2.61812L12.4144 3.67878ZM5.28264 17.4067L1.45421 21.2351L2.51487 22.2958L6.3433 18.4674L5.28264 17.4067ZM2.16132 14.2854L0.33289 16.1138L1.39355 17.1745L3.22198 15.346L2.16132 14.2854ZM8.40396 20.528L6.57553 22.3564L7.63619 23.4171L9.46462 21.5887L8.40396 20.528Z"
    fill="currentColor" />
</svg>