<svg width="602" height="78" viewBox="0 0 602 78" fill="none" xmlns="http://www.w3.org/2000/svg">
<rect x="1" y="1" width="600" height="76" rx="12" stroke="#262626"/>
<rect x="13" y="13" width="52" height="52" rx="26" fill="white"/>
<path d="M46.0089 38.1857C46.6637 38.5476 46.6637 39.4524 46.0089 39.8143L34.2232 46.3287C33.5685 46.6906 32.75 46.2382 32.75 45.5144L32.75 32.4856C32.75 31.7618 33.5685 31.3094 34.2232 31.6713L46.0089 38.1857Z" fill="black"/>
<g clip-path="url(#clip0_0_63)">
<path d="M77 38V40" stroke="#474747"/>
<path d="M80 37V41" stroke="#474747"/>
<path d="M83 34V44" stroke="#474747"/>
<path d="M86 37V41" stroke="#474747"/>
<path d="M89 35V43" stroke="#474747"/>
<path d="M92 31V47" stroke="#474747"/>
<path d="M95 24V54" stroke="#474747"/>
<path d="M98 29V49" stroke="#474747"/>
<path d="M101 32V46" stroke="#474747"/>
<path d="M104 23V55" stroke="#474747"/>
<path d="M107 32V46" stroke="#474747"/>
<path d="M110 32V46" stroke="#474747"/>
<path d="M113 29V49" stroke="#474747"/>
<path d="M116 36V42" stroke="#474747"/>
<path d="M119 29V49" stroke="#474747"/>
<path d="M122 34V44" stroke="#474747"/>
<path d="M125 33V45" stroke="#474747"/>
<path d="M128 28V50" stroke="#474747"/>
<path d="M131 29V49" stroke="#474747"/>
<path d="M134 31V47" stroke="#474747"/>
<path d="M137 23V55" stroke="#474747"/>
<path d="M140 23V55" stroke="#474747"/>
<path d="M143 35V43" stroke="#474747"/>
<path d="M146 33.5V44.5" stroke="#474747"/>
<path d="M149 20V58" stroke="#474747"/>
<path d="M152 17V61" stroke="#474747"/>
<path d="M155 23V55" stroke="#474747"/>
<path d="M158 17V61" stroke="#474747"/>
<path d="M161 24V54" stroke="#474747"/>
<path d="M164 35V43" stroke="#474747"/>
<path d="M167 27V51" stroke="#474747"/>
<path d="M170 29V49" stroke="#474747"/>
<path d="M173 29V49" stroke="#474747"/>
<path d="M176 21V57" stroke="#474747"/>
<path d="M179 21V57" stroke="#474747"/>
<path d="M182 22V56" stroke="#474747"/>
<path d="M185 22V56" stroke="#474747"/>
<path d="M188 27V51" stroke="#474747"/>
<path d="M191 27V51" stroke="#474747"/>
<path d="M194 21V57" stroke="#474747"/>
<path d="M197 21V57" stroke="#474747"/>
<path d="M200 34V44" stroke="#474747"/>
<path d="M203 34V44" stroke="#474747"/>
<path d="M206 34V44" stroke="#474747"/>
<path d="M209 34V44" stroke="#474747"/>
<path d="M212 20V58" stroke="#474747"/>
<path d="M215 20V58" stroke="#474747"/>
<path d="M218 22V56" stroke="#474747"/>
<path d="M221 22V56" stroke="#474747"/>
<path d="M224 26V52" stroke="#474747"/>
<path d="M227 26V52" stroke="#474747"/>
<path d="M230 20V58" stroke="#474747"/>
<path d="M233 20V58" stroke="#474747"/>
<path d="M236 32V46" stroke="#474747"/>
<path d="M239 32V46" stroke="#474747"/>
<path d="M242 27V51" stroke="#474747"/>
<path d="M245 27V51" stroke="#474747"/>
<path d="M248 36V42" stroke="#474747"/>
<path d="M251 36V42" stroke="#474747"/>
<path d="M254 28V50" stroke="#474747"/>
<path d="M257 28V50" stroke="#474747"/>
<path d="M260 33.5V44.5" stroke="#474747"/>
<path d="M263 27V51" stroke="#474747"/>
<path d="M266 26V52" stroke="#474747"/>
<path d="M269 26V52" stroke="#474747"/>
<path d="M272 35V43" stroke="#474747"/>
<path d="M275 35V43" stroke="#474747"/>
<path d="M278 18.5V59.5" stroke="#474747"/>
<path d="M281 26V52" stroke="#474747"/>
<path d="M284 32V46" stroke="#474747"/>
<path d="M287 38V40" stroke="#474747"/>
<path d="M290 28V50" stroke="#474747"/>
<path d="M293 28V50" stroke="#474747"/>
<path d="M296 33V45" stroke="#474747"/>
<path d="M299 33V45" stroke="#474747"/>
<path d="M302 29V49" stroke="#474747"/>
<path d="M305 32V46" stroke="#474747"/>
<path d="M308 32V46" stroke="#474747"/>
<path d="M311 36V42" stroke="#474747"/>
<path d="M314 36V42" stroke="#474747"/>
<path d="M317 28V50" stroke="#474747"/>
<path d="M320 28V50" stroke="#474747"/>
<path d="M323 35V43" stroke="#474747"/>
<path d="M326 35V43" stroke="#474747"/>
<path d="M329 35V43" stroke="#474747"/>
<path d="M332 34V44" stroke="#474747"/>
<path d="M335 22V56" stroke="#474747"/>
<path d="M338 25V53" stroke="#474747"/>
<path d="M341 28V50" stroke="#474747"/>
<path d="M344 36V42" stroke="#474747"/>
<path d="M347 33V45" stroke="#474747"/>
<path d="M350 35V43" stroke="#474747"/>
<path d="M353 25V53" stroke="#474747"/>
<path d="M356 21V57" stroke="#474747"/>
<path d="M359 18V60" stroke="#474747"/>
<path d="M362 30V48" stroke="#474747"/>
<path d="M365 33.5V44.5" stroke="#474747"/>
<path d="M368 18V60" stroke="#474747"/>
<path d="M371 19V59" stroke="#474747"/>
<path d="M374 29V49" stroke="#474747"/>
<path d="M377 26V52" stroke="#474747"/>
<path d="M380 28V50" stroke="#474747"/>
<path d="M383 29V49" stroke="#474747"/>
<path d="M386 34V44" stroke="#474747"/>
<path d="M389 35V43" stroke="#474747"/>
<path d="M392 28V50" stroke="#474747"/>
<path d="M395 27V51" stroke="#474747"/>
<path d="M398 30V48" stroke="#474747"/>
<path d="M401 28V50" stroke="#474747"/>
<path d="M404 20V58" stroke="#474747"/>
<path d="M407 27V51" stroke="#474747"/>
<path d="M410 32V46" stroke="#474747"/>
<path d="M413 35V43" stroke="#474747"/>
<path d="M416 35V43" stroke="#474747"/>
<path d="M419 32V46" stroke="#474747"/>
<path d="M422 36V42" stroke="#474747"/>
<path d="M425 32V46" stroke="#474747"/>
<path d="M428 35V43" stroke="#474747"/>
<path d="M431 34V44" stroke="#474747"/>
<path d="M434 31V47" stroke="#474747"/>
<path d="M437 27V51" stroke="#474747"/>
<path d="M440 36V42" stroke="#474747"/>
<path d="M443 30V48" stroke="#474747"/>
<path d="M446 35V43" stroke="#474747"/>
<path d="M449 29V49" stroke="#474747"/>
<path d="M452 25V53" stroke="#474747"/>
<path d="M455 25V53" stroke="#474747"/>
<path d="M458 36V42" stroke="#474747"/>
<path d="M461 31V47" stroke="#474747"/>
<path d="M464 33V45" stroke="#474747"/>
</g>
<line x1="476.5" y1="13" x2="476.5" y2="65" stroke="#1D1D1D"/>
<path d="M505.051 35.14C502.713 35.14 501.201 33.81 501.201 31.29V25.2H502.657V31.192C502.657 32.928 503.553 33.866 505.051 33.866C506.549 33.866 507.445 32.928 507.445 31.192V25.2H508.915V31.29C508.915 33.81 507.375 35.14 505.051 35.14ZM510.471 37.66V27.72H511.885V28.868C512.319 28.07 513.243 27.58 514.321 27.58C515.945 27.58 517.569 28.714 517.569 31.36C517.569 33.992 515.945 35.14 514.321 35.14C513.243 35.14 512.319 34.65 511.885 33.852V37.66H510.471ZM511.815 31.36C511.815 33.138 512.907 33.95 514.027 33.95C515.161 33.95 516.225 33.138 516.225 31.36C516.225 29.582 515.161 28.77 514.027 28.77C512.907 28.77 511.815 29.582 511.815 31.36ZM518.783 35V25.2H520.197V35H518.783ZM524.955 35.14C523.149 35.14 521.413 33.964 521.413 31.36C521.413 28.756 523.149 27.58 524.955 27.58C526.775 27.58 528.511 28.756 528.511 31.36C528.511 33.964 526.775 35.14 524.955 35.14ZM522.757 31.36C522.757 33.152 523.779 33.95 524.955 33.95C526.131 33.95 527.167 33.152 527.167 31.36C527.167 29.568 526.131 28.77 524.955 28.77C523.779 28.77 522.757 29.568 522.757 31.36ZM531.82 35.14C530.462 35.14 529.384 34.538 529.384 33.096C529.384 31.696 530.406 31.122 531.708 30.968L533.514 30.758C534.186 30.674 534.41 30.548 534.41 30.324V30.128C534.41 28.966 533.808 28.658 532.786 28.658C531.736 28.658 531.148 28.966 531.148 29.89V30.058H529.79V29.764C529.79 28.308 530.812 27.58 532.814 27.58C534.872 27.58 535.824 28.35 535.824 30.114V35H534.494V33.824H534.438C534.298 34.104 533.612 35.14 531.82 35.14ZM530.798 33.026C530.798 33.712 531.288 34.034 532.17 34.034C533.71 34.034 534.41 33.082 534.41 32.298V31.5C534.312 31.654 534.13 31.752 533.416 31.836L532.044 32.018C531.134 32.13 530.798 32.452 530.798 33.026ZM540.206 35.14C538.582 35.14 536.958 33.992 536.958 31.36C536.958 28.714 538.582 27.58 540.206 27.58C541.284 27.58 542.208 28.07 542.642 28.868V25.2H544.056V35H542.642V33.852C542.208 34.65 541.284 35.14 540.206 35.14ZM538.302 31.36C538.302 33.138 539.366 33.95 540.5 33.95C541.62 33.95 542.712 33.138 542.712 31.36C542.712 29.582 541.62 28.77 540.5 28.77C539.366 28.77 538.302 29.582 538.302 31.36ZM549.099 36.512C550.303 36.68 550.779 36.204 551.059 35.518C551.213 35.126 551.213 34.888 551.087 34.552L548.357 27.72H549.813L551.899 33.278L553.999 27.72H555.455L552.375 35.42C551.619 37.296 550.723 37.926 549.099 37.73V36.512ZM559.231 35.14C557.425 35.14 555.689 33.964 555.689 31.36C555.689 28.756 557.425 27.58 559.231 27.58C561.051 27.58 562.787 28.756 562.787 31.36C562.787 33.964 561.051 35.14 559.231 35.14ZM557.033 31.36C557.033 33.152 558.055 33.95 559.231 33.95C560.407 33.95 561.443 33.152 561.443 31.36C561.443 29.568 560.407 28.77 559.231 28.77C558.055 28.77 557.033 29.568 557.033 31.36ZM565.424 31.934C565.424 33.236 565.984 33.95 567.132 33.95C568.28 33.95 569.078 33.236 569.078 31.934V27.72H570.492V35H569.078V33.544H569.036C568.91 34.09 568.21 35.14 566.586 35.14C565.158 35.14 564.01 34.314 564.01 32.256V27.72H565.424V31.934ZM573.476 31.36V35H572.062V27.72H573.476V29.4H573.504C573.728 28.546 574.414 27.664 575.744 27.664C575.926 27.664 576.122 27.678 576.29 27.734V28.924C576.108 28.896 575.94 28.882 575.758 28.882C574.4 28.882 573.476 29.736 573.476 31.36ZM511.017 52.14C509.211 52.14 507.475 50.964 507.475 48.36C507.475 45.756 509.211 44.58 511.017 44.58C512.837 44.58 514.573 45.756 514.573 48.36C514.573 50.964 512.837 52.14 511.017 52.14ZM508.819 48.36C508.819 50.152 509.841 50.95 511.017 50.95C512.193 50.95 513.229 50.152 513.229 48.36C513.229 46.568 512.193 45.77 511.017 45.77C509.841 45.77 508.819 46.568 508.819 48.36ZM517.062 52L515.032 44.72H516.39L517.916 50.586H517.972L519.764 44.72H520.996L522.788 50.586H522.844L524.37 44.72H525.728L523.684 52H522.088L520.38 46.596L518.658 52H517.062ZM531.87 47.786C531.87 46.484 531.31 45.77 530.162 45.77C529.014 45.77 528.216 46.484 528.216 47.786V52H526.802V44.72H528.216V46.176H528.258C528.384 45.63 529.084 44.58 530.708 44.58C532.136 44.58 533.284 45.406 533.284 47.464V52H531.87V47.786ZM540.825 52.098C539.607 52.098 538.781 51.58 538.781 50.152V45.84H537.591V44.72H538.781V42.886H540.195V44.72H541.637V45.84H540.195V49.914C540.195 50.628 540.433 50.95 541.217 50.95C541.385 50.95 541.511 50.95 541.735 50.922V51.986C541.469 52.056 541.161 52.098 540.825 52.098ZM544.294 48.36V52H542.88V44.72H544.294V46.4H544.322C544.546 45.546 545.232 44.664 546.562 44.664C546.744 44.664 546.94 44.678 547.108 44.734V45.924C546.926 45.896 546.758 45.882 546.576 45.882C545.218 45.882 544.294 46.736 544.294 48.36ZM549.915 52.14C548.557 52.14 547.479 51.538 547.479 50.096C547.479 48.696 548.501 48.122 549.803 47.968L551.609 47.758C552.281 47.674 552.505 47.548 552.505 47.324V47.128C552.505 45.966 551.903 45.658 550.881 45.658C549.831 45.658 549.243 45.966 549.243 46.89V47.058H547.885V46.764C547.885 45.308 548.907 44.58 550.909 44.58C552.967 44.58 553.919 45.35 553.919 47.114V52H552.589V50.824H552.533C552.393 51.104 551.707 52.14 549.915 52.14ZM548.893 50.026C548.893 50.712 549.383 51.034 550.265 51.034C551.805 51.034 552.505 50.082 552.505 49.298V48.5C552.407 48.654 552.225 48.752 551.511 48.836L550.139 49.018C549.229 49.13 548.893 49.452 548.893 50.026ZM558.609 52.14C556.775 52.14 555.053 51.006 555.053 48.374C555.053 45.742 556.775 44.58 558.609 44.58C559.911 44.58 561.521 45.14 561.787 47.31H560.499C560.303 46.19 559.505 45.784 558.595 45.784C557.265 45.784 556.383 46.736 556.383 48.374C556.383 50.012 557.265 50.936 558.595 50.936C559.519 50.936 560.303 50.516 560.499 49.382H561.787C561.549 51.58 559.911 52.14 558.609 52.14ZM562.991 52V42.2H564.405V48.374L567.821 44.72H569.417L566.379 47.856L569.809 52H568.227L565.497 48.766L564.405 49.886V52H562.991Z" fill="#F0F0F0"/>
<defs>
<clipPath id="clip0_0_63">
<rect width="387" height="52" fill="white" transform="translate(77 13)"/>
</clipPath>
</defs>
</svg>
